<?xml version="1.0" encoding="utf-8"?>
<svg height="800px" width="800px" version="1.1" id="Layer_1" viewBox="0 0 500 500" xmlns="http://www.w3.org/2000/svg">
  <circle style="fill:#F7B239;" cx="250.003" cy="250.003" r="227.569"/>
  <g transform="matrix(0.921873, 0, 0, 0.921873, 14, 13.999496)">
    <path style="fill:#E09B2D;" d="M126.306,385.694c-88.801-88.802-95.798-228.426-20.998-325.241 c-8.286,6.401-16.258,13.399-23.858,20.999c-96.401,96.401-96.401,252.698,0,349.099s252.698,96.401,349.099,0 c7.599-7.599,14.597-15.573,20.999-23.858C354.733,481.492,215.108,474.495,126.306,385.694z"/>
    <path style="fill:#E09B2D;" d="M214.615,366.317c-3.999,0-7.672-2.642-8.806-6.682c-1.364-4.865,1.475-9.916,6.34-11.281 c28.686-8.042,59.012-8.043,87.7,0c4.865,1.364,7.704,6.414,6.34,11.281c-1.365,4.864-6.414,7.705-11.28,6.34 c-25.458-7.138-52.366-7.137-77.821,0C216.264,366.207,215.433,366.317,214.615,366.317z"/>
  </g>
  <path d="M 250 13.999 C 119.869 13.999 14 119.868 14 249.999 C 14 380.131 119.869 486 250 486 C 380.132 486 486 380.13 486 249.999 C 486 119.869 380.131 13.999 250 13.999 Z M 250 469.129 C 129.171 469.129 30.869 370.828 30.869 249.999 C 30.869 129.17 129.171 30.868 250 30.868 C 370.829 30.868 469.132 129.17 469.132 249.999 C 469.132 370.829 370.828 469.129 250 469.129 Z"/>
  <path d="M 254.609 290.741 C 206.885 290.741 162.02 309.325 128.274 343.071 C 124.98 346.365 124.98 351.706 128.274 354.999 C 131.567 358.292 136.907 358.294 140.203 354.999 C 170.761 324.441 211.391 307.61 254.609 307.61 C 297.826 307.61 338.457 324.44 369.015 354.999 C 370.663 356.645 372.821 357.47 374.981 357.47 C 377.139 357.47 379.298 356.646 380.946 354.999 C 384.24 351.705 384.24 346.364 380.946 343.071 C 347.197 309.326 302.332 290.741 254.609 290.741 Z"/>
  <path d="M 118.053 245.006 C 118.053 262.213 132.052 276.213 149.26 276.213 C 166.468 276.213 180.467 262.213 180.467 245.006 C 180.467 241.397 179.844 237.933 178.713 234.706 C 182.083 235.053 185.606 235.249 189.297 235.249 C 199.067 235.249 209.958 233.92 221.97 230.654 C 226.464 229.432 229.117 224.797 227.896 220.3 C 226.672 215.804 222.031 213.153 217.542 214.375 C 157.749 230.639 131.826 192.668 130.68 190.93 C 128.15 187.036 122.947 185.916 119.04 188.432 C 115.123 190.953 113.993 196.173 116.514 200.09 C 116.795 200.529 122.45 209.17 134.075 217.756 C 124.526 223.1 118.053 233.31 118.053 245.006 Z"/>
  <path d="M 380.96 188.433 C 377.044 185.912 371.822 187.042 369.303 190.959 C 369.046 191.359 342.835 230.799 282.458 214.376 C 277.967 213.158 273.328 215.806 272.104 220.302 C 270.882 224.797 273.535 229.432 278.03 230.656 C 290.045 233.923 300.932 235.251 310.703 235.251 C 314.393 235.251 317.915 235.054 321.286 234.708 C 320.155 237.935 319.532 241.398 319.532 245.008 C 319.532 262.215 333.531 276.215 350.739 276.215 C 367.947 276.215 381.946 262.215 381.946 245.008 C 381.946 233.31 375.474 223.102 365.926 217.759 C 377.552 209.172 383.206 200.531 383.487 200.093 C 386.007 196.174 384.877 190.955 380.96 188.433 Z"/>
  <g transform="matrix(0.921873, 0, 0, 0.921873, 14, 13.999496)">
    <circle style="fill:#FFFFFF;" cx="153.566" cy="249.27" r="9.15"/>
    <circle style="fill:#FFFFFF;" cx="371.935" cy="249.27" r="9.15"/>
  </g>
</svg>