<?xml version="1.0" encoding="UTF-8" standalone="no"?>
<svg
   viewBox="100 0 300 300"
   width="800"
   height="800"
   version="1.1"
   id="svg59"
   sodipodi:docname="horn.svg"
   xmlns:inkscape="http://www.inkscape.org/namespaces/inkscape"
   xmlns:sodipodi="http://sodipodi.sourceforge.net/DTD/sodipodi-0.dtd"
   xmlns="http://www.w3.org/2000/svg"
   xmlns:svg="http://www.w3.org/2000/svg">
  <defs
     id="defs63" />
  <sodipodi:namedview
     id="namedview61"
     pagecolor="#ffffff"
     bordercolor="#000000"
     borderopacity="0.25"
     inkscape:showpageshadow="2"
     inkscape:pageopacity="0.0"
     inkscape:pagecheckerboard="0"
     inkscape:deskcolor="#d1d1d1"
     showgrid="false" />
  <path
     style="fill:#887e59;fill-opacity:1;stroke:#272727;stroke-width:14px;stroke-opacity:1"
     d="m 332.171,252.629 c -10.736,3.513 -19.221,5.486 -37.631,5.286 -9.821,-0.106 -18.527,-1.676 -30.71,-9.589 -13.231,-8.594 -10.171,-10.095 -19.109,-27.638 -5.32,-10.443 -7.66,-122.224 -3.413,-141.574 2.298,-10.473 4.891,-22.149 11.603,-30.458 3.172,-3.926 16.394,-16.699 23.885,-20.868 C 285.566,22.907 300,20.455 300,20.455 318.246,2.309 94.723,2.422 107.547,20.454 c 0,0 17.769,7.371 26.342,11.718 8.406,4.262 18.698,16.485 18.698,16.485 0,0 14.648,21.098 18.43,32.713 13.173,40.47 9.276,101.573 13.646,125.217 2.749,14.868 10.184,43.562 23.886,57.82 10.726,11.161 21.457,18.351 34.126,21.435 7.529,1.833 24.518,9.879 65.514,4.787 18.784,-2.334 35.467,-4.377 51.868,-15.23 9.261,-6.129 19.6,-18.776 23.885,-32.713 15.173,-49.353 5.46,-147.215 5.46,-147.215 0,0 -4.945,-15.046 -12.966,-21.997 -6.22,-5.391 -16.814,-11.481 -25.252,-14.101 -20.666,-6.417 -46.803,-4.56 -68.929,0.564 -9.428,2.183 -19.835,8.047 -25.25,12.409 -9.377,7.555 -16.142,23.461 -17.062,36.662 -2.601,37.316 2.731,101.527 2.731,101.527 0,0 3.399,25.622 27.298,35.535 5.493,2.279 31.393,6.204 31.393,6.204 0,0 31.91,0.89 39.582,-9.588 10.539,-14.391 10.962,-17.081 12.283,-24.254 4.987,-27.056 8.451,-67.81 -3.411,-84.605 -6.486,-9.187 -14.124,-12.156 -21.155,-13.538 -13.061,-2.567 -61.423,-0.001 -61.423,-0.001 l 0.001,22.564 c 0,0 35.768,-6.865 53.231,-0.001 4.813,1.891 7.875,6.537 9.555,10.717 7.856,19.538 1.078,58.624 -0.602,64.654 -1.967,7.046 -6.921,10.55 -9.205,11.49 -8.781,3.608 -18.355,4.304 -29.775,1.693 -13.755,-3.145 -16.915,-9.341 -21.156,-18.049 -6.282,-12.899 -1.365,-103.22 -1.365,-103.22 0,0 0.809,-12.065 9.553,-18.049 7.991,-5.468 11.147,-6.589 30.029,-6.768 13.876,-0.131 25.877,0.229 39.582,9.589 19.29,13.173 16.537,30.826 17.062,49.635 1.059,37.984 -0.245,66.898 -8.965,85.17 -9.978,20.903 -29.98,25.796 -29.252,24.818"
     id="path37" />
  <path
     style="fill:#b9b3a8;fill-opacity:1;stroke:#92b864;stroke-width:0px"
     d="m 145.818,17.623 c 23.948,4.053 37.62,21.744 41.995,38.687 3.996,15.48 6.926,43.722 6.926,43.722 0,0 12.429,119.365 16.558,135.665 3.87,15.264 5.915,25.544 15.999,34.692 13.754,12.478 40.629,14.034 40.629,14.034 0,0 -22.867,-9.939 -33.603,-26.105 -7.432,-11.191 -7.921,-34.815 -10.448,-44.035 -2.603,-9.492 -10.439,-98.788 -8.411,-157.396 0.273,-7.863 6.704,-35.537 29.077,-40.957 17.017,-4.123 -125.11,-2.773 -98.722,1.693 z"
     id="path39" />
  <g
     style="stroke:#272727;stroke-opacity:1"
     transform="matrix(1.223069,0,0,0.884128,-11.786567,-30.614489)"
     id="g47">
    <ellipse
       style="fill:#957b7b;stroke:#272727;stroke-width:9px;stroke-opacity:1"
       cx="142.718"
       cy="192.377"
       rx="11.794"
       ry="14.173"
       id="ellipse41" />
    <ellipse
       style="fill:#675353;stroke:#272727;stroke-width:9px;stroke-opacity:1"
       cx="138.58"
       cy="191.86"
       rx="11.794"
       ry="14.173"
       id="ellipse43" />
    <ellipse
       style="fill:#373636;stroke:#272727;stroke-width:0px;stroke-opacity:1"
       cx="142.412"
       cy="192.30299"
       rx="4.2870002"
       ry="7.0139999"
       id="ellipse45" />
  </g>
  <path
     style="fill:#444135;fill-opacity:1;stroke:#000000;stroke-width:0px"
     d="m 274.858,135.869 -1.284,-9.561 c 0,0 35.89,-3.062 51.841,-0.353 6.136,1.042 11.733,2.445 15.424,6.019 4.243,4.106 6.733,6.671 7.713,10.977 2.46,10.811 3.48848,18.587 3.22048,33.995 -0.249,14.329 -2.19048,28.663 -6.21948,42.846 -4.748,16.714 -11.358,22.304 -18.843,22.733 -24.949,1.43 -44.015,-6.622 -44.015,-6.622 -9.593,3.294 35.79,5.029 43.226,-2.796 1.935,-2.038 6.822,-6.5 8.491,-17.565 l 2.572,-20.538 0.856,-28.683 -1.115,-11.747 c 0.613,0 -2.012,-9.812 -5.404,-12.331 -3.889,-2.89 -7.911,-5.206 -11.047,-6.02 -15.396,-3.998 -45.416,-0.354 -45.416,-0.354 z"
     id="path49"
     sodipodi:nodetypes="ccccccssccccccccc" />
  <path
     style="fill:#d0cdc4;fill-opacity:1;stroke:#000000;stroke-width:0px"
     d="m 334.413,65.757 c 0,0 18.579,3.211 24.85,7.791 6.234,4.552 10.834,8.1 14.138,14.872 1.951,3.995 3.427,15.934 3.427,15.934 0,0 -5.455,-11.958 -8.997,-16.288 -4.244,-5.19 -9.579,-7.999 -14.567,-11.686 -6.376,-4.714 -18.851,-10.623 -18.851,-10.623 z"
     id="path51" />
  <path
     style="fill:#6e674e;fill-opacity:1;stroke:#000000;stroke-width:0px"
     d="m 330.671,241.751 c 1.039,0.39 -6.059,1.884 -19.077,-1.465 -4.679,-1.205 -7.999,-1.005 -20.697,-2.957 -11.27,-1.732 -22.501,-9.589 -23.322,-11.139 -2.171,-4.098 -6.445,-11.629 -7.284,-17.33 -4.927,-33.474 0.858,-107.162 0.858,-107.162 0.421,-1.421 5.985,-9.822 15.866,-17.818 3.814,-3.087 -3.482,-4.842 7.829,-15.459 6.55,-6.148 -16.903,3.729 -26.694,11.349 -8.706,6.774 -10.675,14.96 -11.14,23.342 -2.21,39.771 -2.384,93.111 3.427,111.407 1.701,5.36 8.14,15.207 8.14,15.207 0,0 8.136,8.454 13.283,10.965 2.89,1.409 20.755,5.923 34.093,5.875 15.603,-0.056 24.718,-4.815 24.718,-4.815 z"
     id="path53" />
  <path
     style="fill:#444135;fill-opacity:1;stroke:#000000;stroke-width:0px"
     d="m 273.269,125.524 c 0,0 51.332,-1.515 48.876,0.517 0,0 1.59,2.739 1.689,4.385 0.114,1.968 -0.44,6.965 -0.44,6.965 -8.08,-5.565 -49.99,-2.1 -49.189,-1.547 z"
     id="path57" />
  <path
     style="opacity:0.75;fill:#2b2b26;fill-opacity:0.410628;stroke-width:4px"
     d="m 147.611,22.557 c 0.31,-0.514 24.377,-3.175 49.193,-3.501 26.723,-0.353 54.316,1.663 54.061,2.084"
     id="path55" />
</svg>
