<?xml version="1.0" encoding="UTF-8" standalone="no"?>
<svg
   enable-background="new 0 0 64 64"
   viewBox="0 0 64 64"
   version="1.1"
   id="svg776"
   sodipodi:docname="expl5.svg"
   inkscape:version="1.2.2 (732a01da63, 2022-12-09)"
   xml:space="preserve"
   xmlns:inkscape="http://www.inkscape.org/namespaces/inkscape"
   xmlns:sodipodi="http://sodipodi.sourceforge.net/DTD/sodipodi-0.dtd"
   xmlns="http://www.w3.org/2000/svg"
   xmlns:svg="http://www.w3.org/2000/svg"><defs
     id="defs780" /><sodipodi:namedview
     id="namedview778"
     pagecolor="#ffffff"
     bordercolor="#000000"
     borderopacity="0.25"
     inkscape:showpageshadow="2"
     inkscape:pageopacity="0.0"
     inkscape:pagecheckerboard="0"
     inkscape:deskcolor="#d1d1d1"
     showgrid="false"
     inkscape:zoom="12.5625"
     inkscape:cx="24.318408"
     inkscape:cy="32.039801"
     inkscape:window-width="1920"
     inkscape:window-height="991"
     inkscape:window-x="-9"
     inkscape:window-y="-9"
     inkscape:window-maximized="1"
     inkscape:current-layer="svg776" /><g
     style="fill:#000000;stroke:#000000;stroke-width:21.456"
     id="g2699"
     transform="matrix(0.13442055,0,0,0.13677195,14.038205,11.649415)"><g
       id="SVGRepo_bgCarrier"
       stroke-width="0"
       style="fill:#000000" /><g
       id="SVGRepo_tracerCarrier"
       stroke-linecap="round"
       stroke-linejoin="round"
       style="fill:#000000" /><g
       id="SVGRepo_iconCarrier"
       style="fill:#000000"><g
         id="g2684"
         style="fill:#000000"><path
           d="m 124.4443,131.96638 51.59885,62.4201 1.71557,-1.71556 c 5.54258,-5.93849 10.82124,-11.87698 15.70399,-17.81546 4.88276,-5.93849 17.81547,-19.53103 22.30232,-25.73345 l 20.19086,36.95059 c -3.43113,4.88275 -8.04995,10.82124 -13.59254,17.41956 -5.54259,6.59832 -12.1409,14.25237 -20.19085,22.69822 l 53.31441,65.85122 h -53.97425 l -28.6367,-35.23502 c -26.12934,27.18507 -53.71032,40.77761 -81.951123,40.77761 -25.469512,0 -46.980032,-8.04995 -64.795494,-24.41378 C 8.7097812,256.80658 0,236.61572 0,212.59784 0,183.96114 13.592537,159.94325 41.437444,141.20403 l 18.871192,-12.93271 c 0.395899,0 0.659832,-0.3959 1.451631,-1.05573 0.659832,-0.3959 1.45163,-1.05573 2.375394,-2.11146 C 45.264469,104.91327 35.498957,84.98635 35.498957,65.455325 c 0,-19.531024 6.334386,-35.235024 18.871192,-47.375931 C 67.302855,5.9384872 83.930619,0 104.51737,0 c 19.92693,0 35.89486,5.9384872 48.82756,17.815462 12.93271,11.876974 19.53103,26.789175 19.53103,44.604637 0,12.536806 -3.43113,23.753948 -10.42534,33.783393 -7.39012,9.633548 -19.92693,21.906418 -38.00632,35.762888 z m -34.443228,24.41378 -2.375395,1.71556 c -17.815461,12.14091 -29.956368,22.30232 -36.290755,29.56047 -6.334386,7.25816 -9.369613,15.3081 -9.369613,23.75395 0,11.87698 4.882756,22.96215 14.252369,32.72767 9.765513,9.36961 20.850689,14.25236 32.727663,14.25236 16.759729,0 35.894859,-10.82124 57.801279,-32.72766 z m 9.369613,-54.63408 3.431125,-2.771294 c 5.93849,-4.486857 11.21714,-8.709781 15.04417,-11.876974 3.82702,-3.431126 6.99422,-6.334387 8.70978,-8.709781 3.82702,-4.486857 5.54259,-10.161412 5.54259,-17.023664 0,-7.65405 -2.3754,-13.592537 -7.65405,-18.475293 -5.27866,-4.882756 -11.87698,-6.994218 -20.58676,-6.994218 -7.654048,0 -14.252367,2.375395 -19.926921,7.258151 -5.278656,4.486857 -8.04995,10.425344 -8.04995,17.815461 0,8.313882 3.431126,16.759731 10.161412,25.073613 l 10.821243,12.932705 c 0.395899,0.263933 1.055731,1.319664 2.507361,2.771294 z"
           fill="#000000"
           id="path2680"
           style="fill:#000000" /><path
           d="m 85.678501,130.77486 -16.231865,11.08518 c -10.029445,6.86225 -20.190857,13.7245 -28.636705,22.43428 -8.577815,8.70978 -15.440067,19.26709 -17.815462,31.14407 -1.979495,9.89748 -1.187697,20.32282 1.45163,29.95637 15.044168,55.95374 62.815998,53.18245 78.256061,64.39959 -4.750786,8.31388 -15.703996,2.50736 -25.205575,4.22292 -9.50158,1.71557 -11.745008,-1.05573 -20.982655,-3.82702 C 28.932956,281.87637 9.0060329,262.21338 2.6716466,234.10454 -6.9618993,192.00726 14.020755,168.25331 14.020755,168.25331 c 0,0 4.618824,-9.50158 21.774453,-23.62198 1.055731,-0.92376 27.71294,-17.94743 28.10884,-19.26709 0.659831,-1.71556 -13.064672,-14.5163 -15.572033,-20.19086 0.998969,-130.621499 14.189346,-4.01382 37.346486,25.60148 z m 4.882756,26.78918 c 3.827025,-3.5631 5.410621,-4.88276 10.161413,-7.25816 19.39906,21.77446 35.89485,42.36121 54.10621,66.24713 -4.48685,3.16719 -8.18191,9.10568 -8.18191,9.10568 z m 33.255523,128.27132 c 18.21136,-10.29338 33.91536,-25.20558 45.26447,-42.75711 0.65984,-1.05573 1.5836,-2.37539 2.90326,-2.50736 1.31967,-0.13197 2.50736,1.05573 3.43113,1.97949 13.06467,15.04417 20.98265,25.60148 31.93586,42.36121 -5.41062,3.03523 -2.63932,2.7713 -8.84174,2.3754 -3.03523,-0.13197 -24.54575,-31.27603 -26.12935,-29.95637 -8.70978,7.91798 -29.4285,32.33176 -48.82756,28.63671 z m 75.22084,-70.86595 c -0.3959,0.52787 -0.92376,1.1877 -1.05573,1.9795 -0.13196,1.18769 2.90326,6.99421 4.48686,8.84174 8.18191,-8.84174 16.75973,-17.94742 23.49001,-26.6572 -7.9901,-44.88974 2.39509,-21.23381 -26.92114,15.83596 z M 98.08334,101.21439 c 4.09096,4.48686 8.18192,8.84175 12.27287,13.32861 15.17614,-8.84175 26.26131,-24.545752 29.56047,-41.833348 0.7918,-3.958991 1.05573,-8.181915 0.52787,-12.140907 -1.5836,-11.349109 -11.34911,-20.454789 -22.56625,-22.170352 6.73028,3.695059 10.95321,8.181916 13.19664,14.516302 2.37539,6.334386 1.58359,13.988436 -1.45163,20.05889 -1.71557,3.563092 -4.35489,6.466353 -6.99422,9.50158 -6.73029,7.390117 -13.85647,11.876974 -22.830187,19.399055 z"
           fill-opacity="0.1"
           fill="#000000"
           id="path2682"
           style="fill:#000000"
           sodipodi:nodetypes="cccsccsccccccccccccccsccccccccccccccccccccc" /></g></g></g></svg>
