<?xml version="1.0" encoding="UTF-8" standalone="no"?>
<svg
   enable-background="new 0 0 64 64"
   viewBox="0 0 64 64"
   version="1.1"
   id="svg776"
   sodipodi:docname="expl3.svg"
   inkscape:version="1.2.2 (732a01da63, 2022-12-09)"
   xml:space="preserve"
   xmlns:inkscape="http://www.inkscape.org/namespaces/inkscape"
   xmlns:sodipodi="http://sodipodi.sourceforge.net/DTD/sodipodi-0.dtd"
   xmlns="http://www.w3.org/2000/svg"
   xmlns:svg="http://www.w3.org/2000/svg"><defs
     id="defs780" /><sodipodi:namedview
     id="namedview778"
     pagecolor="#ffffff"
     bordercolor="#000000"
     borderopacity="0.25"
     inkscape:showpageshadow="2"
     inkscape:pageopacity="0.0"
     inkscape:pagecheckerboard="0"
     inkscape:deskcolor="#d1d1d1"
     showgrid="false"
     inkscape:zoom="12.5625"
     inkscape:cx="24.318408"
     inkscape:cy="32.039801"
     inkscape:window-width="1920"
     inkscape:window-height="991"
     inkscape:window-x="-9"
     inkscape:window-y="-9"
     inkscape:window-maximized="1"
     inkscape:current-layer="svg776" /><g
     style="fill:#000000;stroke:#000000;stroke-width:44.032"
     id="g2248"
     transform="matrix(0.078125,0,0,0.078125,-7.7930569,-8)"><g
       id="SVGRepo_bgCarrier"
       stroke-width="0" /><g
       id="SVGRepo_tracerCarrier"
       stroke-linecap="round"
       stroke-linejoin="round" /><g
       id="SVGRepo_iconCarrier"><path
         d="m 541.7,768 v -45.3 c 46.3,-2.4 81.5,-15 108.7,-37.8 27.2,-22.8 40.8,-53.1 40.8,-88.2 0,-37.8 -11,-65.7 -35.3,-83.4 C 631.3,493.2 596.1,477.9 544.3,468 h -2.6 V 351.8 c 35.3,5.1 65.3,15 95.1,35.4 l 43.6,-55.5 C 636.8,303.8 590.5,288.8 541.6,286.4 V 256 h -40.8 v 30.3 c -40.8,2.4 -76.3,15 -103.5,37.8 -27.2,22.8 -40.8,53.1 -40.8,88.2 0,35.1 11,63 35.3,80.7 21.7,17.7 59.8,32.7 108.7,42.9 v 118.5 c -38.2,-5.1 -76.3,-22.8 -114.2,-53.1 l -48.9,53.1 c 48.9,40.5 103.5,63 163.3,68.1 V 768 Z m 2.6,-219.6 c 27.2,7.5 43.6,15 54.4,22.8 8.1,10.2 13.6,20.1 13.6,35.4 0,15.3 -5.5,25.2 -19.1,35.4 -13.6,10.2 -30.1,15 -48.9,17.7 z M 449.2,440 c -8.1,-7.5 -13.6,-20.1 -13.6,-32.7 0,-15 5.5,-25.2 16.2,-35.4 13.6,-10.2 27.2,-15 48.9,-17.7 V 462.8 C 473.5,455 457.3,447.5 449.2,440 Z"
         id="path2235" /></g></g></svg>
