<?xml version="1.0" encoding="UTF-8" standalone="no"?>
<svg
   enable-background="new 0 0 64 64"
   viewBox="0 0 64 64"
   version="1.1"
   id="svg776"
   sodipodi:docname="expl2.svg"
   inkscape:version="1.2.2 (732a01da63, 2022-12-09)"
   xml:space="preserve"
   xmlns:inkscape="http://www.inkscape.org/namespaces/inkscape"
   xmlns:sodipodi="http://sodipodi.sourceforge.net/DTD/sodipodi-0.dtd"
   xmlns="http://www.w3.org/2000/svg"
   xmlns:svg="http://www.w3.org/2000/svg"><defs
     id="defs780" /><sodipodi:namedview
     id="namedview778"
     pagecolor="#ffffff"
     bordercolor="#000000"
     borderopacity="0.25"
     inkscape:showpageshadow="2"
     inkscape:pageopacity="0.0"
     inkscape:pagecheckerboard="0"
     inkscape:deskcolor="#d1d1d1"
     showgrid="false"
     inkscape:zoom="12.5625"
     inkscape:cx="24.318408"
     inkscape:cy="32.039801"
     inkscape:window-width="1920"
     inkscape:window-height="991"
     inkscape:window-x="-9"
     inkscape:window-y="-9"
     inkscape:window-maximized="1"
     inkscape:current-layer="svg776" /><g
     style="fill:#000000;stroke:#000000;stroke-width:15.1453"
     id="g2212"
     transform="matrix(0.10336288,0,0,0.10123779,12.432111,12.954292)"><g
       id="SVGRepo_bgCarrier-5"
       stroke-width="0" /><g
       id="SVGRepo_tracerCarrier-8"
       stroke-linecap="round"
       stroke-linejoin="round" /><g
       id="SVGRepo_iconCarrier-1"> <path
   d="M 377.406,160.981 C 372.323,112.07 346.313,68.461 304.222,38.127 259.004,5.538 200.457,-6.936 147.603,4.807 97.354,15.971 53.256,48.312 26.571,93.491 -0.122,138.731 -7.098,192.982 7.436,242.39 c 7.832,26.66 21.729,51.712 40.15,72.51 18.594,20.972 41.904,37.722 67.472,48.459 23.579,9.888 48.628,14.797 73.653,14.797 34.128,-0.001 68.115,-9.121 97.949,-27.098 l -21.092,-35.081 c -40.578,24.451 -90.887,28.029 -134.652,9.66 C 90.633,308.677 59.157,273.254 46.705,230.876 35.369,192.281 40.859,149.783 61.83,114.29 82.752,78.823 117.256,53.489 156.452,44.757 c 41.644,-9.225 87.948,0.669 123.857,26.566 32.502,23.394 52.497,56.769 56.363,93.907 2.515,23.979 0.31,42.891 -6.526,56.226 -14.487,28.192 -35.526,28.36 -43.873,27.132 -0.283,-0.041 -0.476,-0.082 -0.65,-0.117 -2.396,-3.709 -2.091,-17.489 -1.974,-23.473 0.044,-2.332 0.084,-4.572 0.084,-6.664 v -112.06 h -31.349 c -3.998,-3.278 -8.225,-6.251 -12.674,-8.921 -17.076,-10.159 -36.858,-15.552 -57.255,-15.552 -29.078,0 -56.408,10.597 -76.896,29.824 -32.537,30.543 -42.63,80.689 -24.551,122.023 8.578,19.62 23.065,35.901 41.876,47.066 17.611,10.434 38.182,15.972 59.47,15.972 24.394,0 46.819,-6.735 64.858,-19.492 1.915,-1.342 3.813,-2.79 5.626,-4.233 6.431,8.805 15.811,14.4 27.464,16.114 16.149,2.408 32.299,-0.259 46.784,-7.668 16.453,-8.419 29.715,-22.311 39.439,-41.271 10.684,-20.79 14.253,-46.676 10.881,-79.155 z M 242.33,224.538 c -0.891,1.283 -2.229,2.907 -2.961,3.803 -0.599,0.778 -1.151,1.46 -1.643,2.073 -3.868,4.982 -8.597,9.48 -14.113,13.374 -11.26,7.943 -25.152,11.964 -41.257,11.964 -28.968,0 -53.462,-14.75 -63.846,-38.544 -11.258,-25.69 -5.071,-56.854 15.035,-75.692 12.7,-11.95 30.538,-18.784 48.911,-18.784 13.028,0 25.56,3.375 36.268,9.788 6.831,4.072 12.861,9.337 17.9,15.719 0.497,0.613 1.082,1.322 1.724,2.094 0.952,1.135 2.812,3.438 3.981,5.092 v 69.113 z"
   id="path2200" /> </g></g></svg>
