<?xml version="1.0" encoding="utf-8"?>
<svg height="800px" width="800px" version="1.1" id="Layer_1" viewBox="0 0 500 500" xmlns="http://www.w3.org/2000/svg">
  <circle style="fill: rgb(225, 14, 14);" cx="250.004" cy="250.003" r="227.569"/>
  <path style="fill: rgb(177, 44, 29);" d="M 130.439 369.56 C 48.575 287.696 42.124 158.98 111.081 69.729 C 103.442 75.63 96.093 82.081 89.086 89.087 C 0.217 177.957 0.217 322.043 89.086 410.913 C 177.956 499.782 322.042 499.782 410.912 410.913 C 417.917 403.908 424.368 396.556 430.27 388.919 C 341.019 457.874 212.302 451.423 130.439 369.56 Z"/>
  <path d="M 250.001 13.999 C 119.869 13.999 14 119.868 14 250 C 14 380.131 119.869 486 250.001 486 C 380.132 486 486 380.13 486 250 C 486 119.869 380.131 13.999 250.001 13.999 Z M 250.001 469.129 C 129.172 469.129 30.869 370.828 30.869 250 C 30.869 129.171 129.172 30.868 250.001 30.868 C 370.829 30.868 469.132 129.17 469.132 250 C 469.132 370.829 370.827 469.129 250.001 469.129 Z"/>
  <path d="M 180.469 225.827 C 180.469 222.219 179.846 218.755 178.715 215.527 C 182.085 215.874 185.608 216.071 189.299 216.071 C 199.069 216.071 209.96 214.742 221.972 211.475 C 226.466 210.253 229.12 205.619 227.897 201.121 C 226.674 196.626 222.033 193.976 217.545 195.196 C 157.685 211.48 131.766 173.398 130.677 171.746 C 128.145 167.856 122.946 166.74 119.042 169.254 C 115.125 171.776 113.994 176.995 116.516 180.912 C 116.797 181.351 122.452 189.992 134.076 198.578 C 124.529 203.921 118.057 214.13 118.057 225.827 C 118.057 243.035 132.056 257.034 149.264 257.034 C 166.472 257.034 180.469 243.035 180.469 225.827 Z"/>
  <path d="M 380.985 169.297 C 377.095 166.762 371.878 167.867 369.326 171.745 C 368.253 173.374 342.334 211.483 282.459 195.198 C 277.968 193.976 273.329 196.627 272.105 201.123 C 270.882 205.619 273.536 210.253 278.031 211.477 C 290.046 214.744 300.933 216.073 310.704 216.073 C 314.394 216.073 317.916 215.876 321.287 215.529 C 320.156 218.756 319.533 222.22 319.533 225.829 C 319.533 243.037 333.532 257.036 350.74 257.036 C 367.948 257.036 381.947 243.037 381.947 225.829 C 381.947 214.132 375.475 203.923 365.927 198.58 C 377.553 189.994 383.207 181.353 383.487 180.914 C 385.998 177.009 384.873 171.829 380.985 169.297 Z"/>
  <g transform="matrix(0.921874, 0, 0, 0.921874, 14, 13.999496)">
    <circle style="fill:#FFFFFF;" cx="155.969" cy="225.835" r="9.15"/>
    <circle style="fill:#FFFFFF;" cx="374.338" cy="225.835" r="9.15"/>
  </g>
  <g transform="matrix(0.921874, 0, 0, 0.921874, 8.726255, 21.031128)">
    <path style="stroke: rgb(0, 0, 0);" d="M 158.279 373.204 C 158.279 373.204 229.157 352.939 261.569 352.255 C 309.264 351.25 358.958 368.713 358.958 368.713 C 358.958 368.713 367.283 370.899 366.527 363.779 C 364.66 346.192 349.02 305.796 319.61 283.429 C 278.294 252.007 208.794 280.241 189.759 298.389 C 174.909 312.548 157.455 347.678 153.085 365.083 C 151.086 373.045 158.279 373.204 158.279 373.204 Z"/>
    <path style="stroke: rgb(0, 0, 0); fill: rgb(168, 16, 4);" d="M 189.618 347.778 C 189.618 347.778 238.584 336.438 260.977 336.056 C 293.928 335.494 328.26 345.264 328.26 345.264 C 328.26 345.264 334.012 346.488 333.489 342.504 C 332.198 332.664 321.394 310.061 301.075 297.545 C 272.532 279.964 224.517 295.761 211.366 305.916 C 201.107 313.839 189.048 333.495 186.029 343.234 C 184.649 347.688 189.618 347.778 189.618 347.778 Z"/>
  </g>
  <path style="fill: rgb(177, 44, 29); stroke: rgb(177, 44, 29);" d="M 223.631 168.842 C 222.039 168.842 228.653 176.502 231.835 181.147 C 234.163 184.547 233.007 193.452 233.007 193.452 L 237.694 196.969 L 244.14 192.866 L 239.452 177.631 L 232.422 164.74 L 225.389 163.568 L 223.631 168.842 Z"/>
  <path style="fill: rgb(177, 44, 29); stroke: rgb(177, 44, 29);" d="M 255.273 191.695 C 253.681 191.695 260.295 184.035 263.478 179.389 C 265.806 175.99 264.649 167.084 264.649 167.084 L 269.337 163.568 L 275.783 167.671 L 271.095 182.905 L 264.064 195.797 L 257.032 196.969 L 255.273 191.695 Z" transform="matrix(-1, 0, 0, -1, 530.812445, 360.536968)"/>
  <path style="fill: rgb(249, 84, 40); stroke: rgb(0, 0, 0); stroke-miterlimit: 1; stroke-linecap: round; stroke-linejoin: bevel; stroke-width: 17px;" d="M 263.576 308.016 C 274.476 308.016 288.055 313.897 292.899 340.858 C 277.125 337.046 279.148 336.66 251.175 335.984 C 223.198 335.312 224.208 336.349 203.583 343.789 C 208.419 316.827 218.59 310.337 229.384 308.016 C 236.81 306.418 239.382 307.514 247.912 313.092 C 259.055 308.539 257.168 308.016 263.576 308.016 Z"/>
  <g style="" transform="matrix(0.921874, 0, 0, 0.921874, 14, 13.999496)"/>
</svg>