<?xml version="1.0" encoding="utf-8"?>
<svg height="800px" width="800px" version="1.1" id="Layer_1" viewBox="0 0 512.001 512.001" xmlns="http://www.w3.org/2000/svg">
  <circle style="fill: rgb(225, 14, 14);" cx="256.004" cy="256.004" r="246.855"/>
  <path style="fill: rgb(177, 44, 29);" d="M 126.306 385.694 C 37.505 296.892 30.508 157.268 105.308 60.453 C 97.022 66.854 89.05 73.852 81.45 81.452 C -14.951 177.853 -14.951 334.15 81.45 430.551 C 177.851 526.952 334.148 526.952 430.549 430.551 C 438.148 422.952 445.146 414.978 451.548 406.693 C 354.733 481.492 215.108 474.495 126.306 385.694 Z"/>
  <path d="M256.001,0C114.841,0,0,114.841,0,256.001s114.841,256.001,256.001,256.001S512.001,397.16,512.001,256.001 S397.16,0,256.001,0z M256.001,493.701c-131.069,0-237.702-106.631-237.702-237.7S124.932,18.299,256.001,18.299 s237.702,106.632,237.702,237.702S387.068,493.701,256.001,493.701z"/>
  <path d="M180.577,229.78c0-3.914-0.676-7.672-1.903-11.172c3.656,0.376,7.477,0.589,11.481,0.589 c10.598,0,22.412-1.442,35.442-4.985c4.875-1.326,7.753-6.353,6.428-11.231c-1.327-4.877-6.362-7.751-11.231-6.428 c-64.932,17.664-93.048-23.646-94.229-25.438c-2.746-4.219-8.386-5.43-12.621-2.702c-4.249,2.735-5.475,8.397-2.74,12.646 c0.305,0.476,6.439,9.849,19.049,19.163c-10.357,5.796-17.378,16.869-17.378,29.558c0,18.666,15.186,33.852,33.852,33.852 S180.577,248.446,180.577,229.78z"/>
  <path d="M398.086,168.459c-4.219-2.749-9.879-1.551-12.647,2.655c-1.164,1.768-29.28,43.107-94.229,25.441 c-4.871-1.325-9.903,1.551-11.231,6.428c-1.326,4.876,1.552,9.903,6.428,11.231c13.033,3.544,24.843,4.985,35.442,4.985 c4.003,0,7.823-0.213,11.48-0.589c-1.227,3.5-1.903,7.257-1.903,11.172c0,18.666,15.186,33.852,33.852,33.852 s33.852-15.186,33.852-33.852c0-12.689-7.021-23.762-17.378-29.558c12.611-9.314,18.744-18.687,19.049-19.163 C403.524,176.825,402.304,171.206,398.086,168.459z"/>
  <g>
    <circle style="fill:#FFFFFF;" cx="155.969" cy="225.835" r="9.15"/>
    <circle style="fill:#FFFFFF;" cx="374.338" cy="225.835" r="9.15"/>
  </g>
  <g transform="matrix(1, 0, 0, 1, -5.720682, 7.627546)">
    <path style="stroke: rgb(0, 0, 0);" d="M 158.279 373.204 C 158.279 373.204 229.157 352.939 261.569 352.255 C 309.264 351.25 358.958 368.713 358.958 368.713 C 358.958 368.713 367.283 370.899 366.527 363.779 C 364.66 346.192 349.02 305.796 319.61 283.429 C 278.294 252.007 208.794 280.241 189.759 298.389 C 174.909 312.548 157.455 347.678 153.085 365.083 C 151.086 373.045 158.279 373.204 158.279 373.204 Z"/>
    <path style="stroke: rgb(0, 0, 0); fill: rgb(168, 16, 4);" d="M 189.618 347.778 C 189.618 347.778 238.584 336.438 260.977 336.056 C 293.928 335.494 328.26 345.264 328.26 345.264 C 328.26 345.264 334.012 346.488 333.489 342.504 C 332.198 332.664 321.394 310.061 301.075 297.545 C 272.532 279.964 224.517 295.761 211.366 305.916 C 201.107 313.839 189.048 333.495 186.029 343.234 C 184.649 347.688 189.618 347.778 189.618 347.778 Z"/>
  </g>
  <path style="fill: rgb(177, 44, 29); stroke: rgb(177, 44, 29);" d="M 227.397 167.966 C 225.669 167.966 232.844 176.275 236.296 181.314 C 238.822 185.001 237.567 194.662 237.567 194.662 L 242.652 198.476 L 249.644 194.026 L 244.559 177.5 L 236.932 163.516 L 229.304 162.245 L 227.397 167.966 Z"/>
  <path style="fill: rgb(177, 44, 29); stroke: rgb(177, 44, 29);" d="M 261.721 192.755 C 259.993 192.755 267.168 184.446 270.62 179.407 C 273.146 175.72 271.891 166.059 271.891 166.059 L 276.976 162.245 L 283.968 166.695 L 278.883 183.221 L 271.256 197.205 L 263.628 198.476 L 261.721 192.755 Z" transform="matrix(-1, 0, 0, -1, 545.424511, 360.720976)"/>
  <path style="fill: rgb(249, 84, 40); stroke: rgb(0, 0, 0); stroke-miterlimit: 1; stroke-linecap: round; stroke-linejoin: bevel; stroke-width: 17px;" d="M 270.727 318.934 C 282.551 318.934 297.281 325.314 302.535 354.56 C 285.425 350.425 287.619 350.006 257.275 349.273 C 226.928 348.544 228.023 349.668 205.65 357.739 C 210.896 328.492 221.929 321.452 233.637 318.934 C 241.692 317.2 244.482 318.39 253.735 324.44 C 265.823 319.502 263.776 318.934 270.727 318.934 Z"/>
  <g style=""/>
</svg>