<?xml version="1.0" encoding="utf-8"?>
<svg height="800px" width="800px" version="1.1" id="Layer_1" viewBox="0 0 500 500" xmlns="http://www.w3.org/2000/svg">
  <circle style="fill:#F7B239;" cx="250.004" cy="250.004" r="227.57"/>
  <path style="fill:#E09B2D;" d="M 130.438 369.562 C 48.575 287.697 42.124 158.982 111.081 69.729 C 103.444 75.63 96.094 82.08 89.087 89.087 C 0.217 177.956 0.217 322.043 89.087 410.912 C 177.956 499.782 322.043 499.782 410.912 410.912 C 417.918 403.907 424.369 396.556 430.271 388.918 C 341.019 457.876 212.303 451.424 130.438 369.562 Z"/>
  <path style="fill:#FFFFFF;" d="M 358.115 212.492 L 358.115 251.911 C 298.407 311.618 201.6 311.618 141.881 251.911 L 141.881 212.492 C 201.6 272.211 298.407 272.211 358.115 212.492 Z"/>
  <path style="fill:#F95428;" d="M 277.512 324.529 C 295.057 324.529 310.307 334.325 318.101 348.742 C 299.51 363.846 275.814 372.888 250.005 372.888 C 224.194 372.888 200.498 363.846 181.909 348.742 C 189.691 334.324 204.952 324.529 222.485 324.529 C 232.798 324.529 242.324 327.914 250.005 333.639 C 257.685 327.914 267.2 324.529 277.512 324.529 Z"/>
  <path style="fill:#A81004;" d="M 358.115 251.911 L 358.115 264.777 C 358.115 294.635 346.014 321.662 326.445 341.218 C 323.802 343.871 321.013 346.38 318.1 348.741 C 310.307 334.323 295.056 324.528 277.511 324.528 C 267.199 324.528 257.684 327.913 250.003 333.638 C 242.322 327.914 232.796 324.528 222.483 324.528 C 204.95 324.528 189.689 334.324 181.907 348.741 C 157.48 328.936 141.88 298.673 141.88 264.776 L 141.88 251.91 C 201.6 311.618 298.407 311.618 358.115 251.911 Z"/>
  <path d="M 172.29 183.955 C 172.29 188.613 176.067 192.39 180.725 192.39 C 185.383 192.39 189.16 188.613 189.16 183.955 C 189.16 154.496 165.193 130.528 135.733 130.528 C 106.275 130.528 82.307 154.496 82.307 183.955 C 82.307 188.613 86.084 192.39 90.742 192.39 C 95.401 192.39 99.178 188.613 99.178 183.955 C 99.178 163.797 115.576 147.398 135.734 147.398 C 155.892 147.398 172.29 163.798 172.29 183.955 Z"/>
  <path d="M 364.268 130.529 C 334.808 130.529 310.841 154.497 310.841 183.956 C 310.841 188.614 314.618 192.391 319.276 192.391 C 323.934 192.391 327.711 188.614 327.711 183.956 C 327.711 163.798 344.111 147.399 364.269 147.399 C 384.426 147.399 400.825 163.798 400.825 183.956 C 400.825 188.614 404.602 192.391 409.261 192.391 C 413.919 192.391 417.695 188.614 417.695 183.956 C 417.695 154.497 393.727 130.529 364.268 130.529 Z"/>
  <path d="M 361.341 204.699 C 358.191 203.394 354.561 204.116 352.15 206.528 C 324.865 233.818 288.589 248.846 250.001 248.846 C 211.413 248.846 175.135 233.818 147.845 206.528 C 145.433 204.115 141.805 203.394 138.653 204.699 C 135.502 206.005 133.447 209.081 133.447 212.491 L 133.447 264.776 C 133.447 300.068 149.174 333.06 176.588 355.288 C 197.251 372.076 223.325 381.321 250.004 381.321 C 276.683 381.321 302.756 372.076 323.411 355.293 C 326.581 352.723 329.613 349.989 332.407 347.183 C 354.424 325.18 366.549 295.913 366.549 264.776 L 366.549 212.491 C 366.55 209.081 364.494 206.006 361.341 204.699 Z M 250.002 265.716 C 286.618 265.716 321.368 253.602 349.678 231.264 L 349.678 248.356 C 294.009 301.463 205.996 301.463 150.315 248.356 L 150.315 231.263 C 178.632 253.598 213.387 265.716 250.002 265.716 Z M 193.351 346.768 C 200.427 338.123 211.058 332.963 222.483 332.963 C 230.66 332.963 238.434 335.534 244.963 340.401 C 247.953 342.629 252.052 342.629 255.043 340.401 C 261.572 335.534 269.341 332.963 277.511 332.963 C 288.937 332.963 299.57 338.123 306.653 346.77 C 290.094 358.21 270.259 364.452 250.003 364.452 C 229.749 364.454 209.914 358.211 193.351 346.768 Z M 320.468 335.267 C 320.211 335.527 319.94 335.781 319.679 336.038 C 309.428 323.543 294.04 316.095 277.513 316.095 C 267.72 316.095 258.321 318.651 250.005 323.531 C 241.687 318.65 232.284 316.095 222.485 316.095 C 205.953 316.095 190.564 323.546 180.321 336.045 C 162.579 318.746 151.979 295.617 150.5 270.795 C 179.603 293.627 214.801 305.051 250.003 305.051 C 285.197 305.051 320.386 293.631 349.483 270.808 C 348.037 295.166 337.88 317.864 320.468 335.267 Z"/>
  <path d="M 249.999 14 C 119.869 14 14 119.869 14 250.001 C 14 380.133 119.869 486 249.999 486 C 380.131 486 486 380.131 486 250.001 C 486 119.869 380.131 14 249.999 14 Z M 249.999 469.13 C 129.171 469.13 30.87 370.829 30.87 250.001 C 30.87 129.172 129.171 30.87 249.999 30.87 C 370.828 30.87 469.13 129.171 469.13 250.001 C 469.13 370.828 370.828 469.13 249.999 469.13 Z"/>
</svg>