<?xml version="1.0" encoding="utf-8"?>
<svg viewBox="100 0 300 300" width="800px" height="800px" xmlns="http://www.w3.org/2000/svg">
  <path style="stroke: rgb(0, 0, 0); stroke-width: 14px; fill: rgb(219, 173, 6);" d="M 332.171 252.629 C 321.435 256.142 312.95 258.115 294.54 257.915 C 284.719 257.809 276.013 256.239 263.83 248.326 C 250.599 239.732 253.659 238.231 244.721 220.688 C 239.401 210.245 237.061 98.464 241.308 79.114 C 243.606 68.641 246.199 56.965 252.911 48.656 C 256.083 44.73 269.305 31.957 276.796 27.788 C 285.566 22.907 300 20.455 300 20.455 C 318.246 2.309 94.723 2.422 107.547 20.454 C 107.547 20.454 125.316 27.825 133.889 32.172 C 142.295 36.434 152.587 48.657 152.587 48.657 C 152.587 48.657 167.235 69.755 171.017 81.37 C 184.19 121.84 180.293 182.943 184.663 206.587 C 187.412 221.455 194.847 250.149 208.549 264.407 C 219.275 275.568 230.006 282.758 242.675 285.842 C 250.204 287.675 267.193 295.721 308.189 290.629 C 326.973 288.295 343.656 286.252 360.057 275.399 C 369.318 269.27 379.657 256.623 383.942 242.686 C 399.115 193.333 389.402 95.471 389.402 95.471 C 389.402 95.471 384.457 80.425 376.436 73.474 C 370.216 68.083 359.622 61.993 351.184 59.373 C 330.518 52.956 304.381 54.813 282.255 59.937 C 272.827 62.12 262.42 67.984 257.005 72.346 C 247.628 79.901 240.863 95.807 239.943 109.008 C 237.342 146.324 242.674 210.535 242.674 210.535 C 242.674 210.535 246.073 236.157 269.972 246.07 C 275.465 248.349 301.365 252.274 301.365 252.274 C 301.365 252.274 333.275 253.164 340.947 242.686 C 351.486 228.295 351.909 225.605 353.23 218.432 C 358.217 191.376 361.681 150.622 349.819 133.827 C 343.333 124.64 335.695 121.671 328.664 120.289 C 315.603 117.722 267.241 120.288 267.241 120.288 L 267.242 142.852 C 267.242 142.852 303.01 135.987 320.473 142.851 C 325.286 144.742 328.348 149.388 330.028 153.568 C 337.884 173.106 331.106 212.192 329.426 218.222 C 327.459 225.268 322.505 228.772 320.221 229.712 C 311.44 233.32 301.866 234.016 290.446 231.405 C 276.691 228.26 273.531 222.064 269.29 213.356 C 263.008 200.457 267.925 110.136 267.925 110.136 C 267.925 110.136 268.734 98.071 277.478 92.087 C 285.469 86.619 288.625 85.498 307.507 85.319 C 321.383 85.188 333.384 85.548 347.089 94.908 C 366.379 108.081 363.626 125.734 364.151 144.543 C 365.21 182.527 363.906 211.441 355.186 229.713 C 345.208 250.616 325.206 255.509 325.934 254.531"/>
  <path style="stroke-width: 0px; stroke: rgb(146, 184, 100); fill: rgb(252, 232, 182);" d="M 145.818 17.623 C 169.766 21.676 183.438 39.367 187.813 56.31 C 191.809 71.79 194.739 100.032 194.739 100.032 C 194.739 100.032 207.168 219.397 211.297 235.697 C 215.167 250.961 217.212 261.241 227.296 270.389 C 241.05 282.867 267.925 284.423 267.925 284.423 C 267.925 284.423 245.058 274.484 234.322 258.318 C 226.89 247.127 226.401 223.503 223.874 214.283 C 221.271 204.791 213.435 115.495 215.463 56.887 C 215.736 49.024 222.167 21.35 244.54 15.93 C 261.557 11.807 119.43 13.157 145.818 17.623 Z"/>
  <g style="" transform="matrix(1.223069, 0, 0, 0.884128, -11.786567, -30.614489)">
    <ellipse style="stroke: rgb(0, 0, 0); stroke-width: 9px; fill: rgb(149, 123, 123);" cx="142.718" cy="192.377" rx="11.794" ry="14.173"/>
    <ellipse style="stroke: rgb(0, 0, 0); stroke-width: 9px; fill: rgb(103, 83, 83);" cx="138.58" cy="191.86" rx="11.794" ry="14.173"/>
    <ellipse style="stroke: rgb(0, 0, 0); fill: rgb(55, 54, 54); stroke-width: 0px;" cx="142.412" cy="192.303" rx="4.287" ry="7.014"/>
  </g>
  <path style="stroke: rgb(0, 0, 0); stroke-width: 0px; fill: rgb(148, 127, 53);" d="M 274.858 135.869 L 273.574 126.308 C 273.574 126.308 309.464 123.246 325.415 125.955 C 331.551 126.997 337.148 128.4 340.839 131.974 C 345.082 136.08 347.572 138.645 348.552 142.951 C 351.012 153.762 350.105 161.538 349.837 176.946 C 349.588 191.275 349.582 205.609 345.553 219.792 C 340.805 236.506 334.195 242.096 326.71 242.525 C 301.761 243.955 282.695 235.903 282.695 235.903 C 273.102 239.197 318.485 240.932 325.921 233.107 C 327.856 231.069 332.743 226.607 334.412 215.542 L 336.984 195.004 L 337.84 166.321 L 336.725 154.574 C 337.338 154.574 334.713 144.762 331.321 142.243 C 327.432 139.353 323.41 137.037 320.274 136.223 C 304.878 132.225 274.858 135.869 274.858 135.869 Z"/>
  <path style="stroke: rgb(0, 0, 0); stroke-width: 0px; fill: rgb(252, 232, 182);" d="M 334.413 65.757 C 334.413 65.757 352.992 68.968 359.263 73.548 C 365.497 78.1 370.097 81.648 373.401 88.42 C 375.352 92.415 376.828 104.354 376.828 104.354 C 376.828 104.354 371.373 92.396 367.831 88.066 C 363.587 82.876 358.252 80.067 353.264 76.38 C 346.888 71.666 334.413 65.757 334.413 65.757 Z"/>
  <path style="stroke: rgb(0, 0, 0); stroke-width: 0px; fill: rgb(188, 147, 0);" d="M 330.671 241.751 C 331.71 242.141 324.612 243.635 311.594 240.286 C 306.915 239.081 303.595 239.281 290.897 237.329 C 279.627 235.597 268.396 227.74 267.575 226.19 C 265.404 222.092 261.13 214.561 260.291 208.86 C 255.364 175.386 261.149 101.698 261.149 101.698 C 261.57 100.277 267.134 91.876 277.015 83.88 C 280.829 80.793 273.533 79.038 284.844 68.421 C 291.394 62.273 267.941 72.15 258.15 79.77 C 249.444 86.544 247.475 94.73 247.01 103.112 C 244.8 142.883 244.626 196.223 250.437 214.519 C 252.138 219.879 258.577 229.726 258.577 229.726 C 258.577 229.726 266.713 238.18 271.86 240.691 C 274.75 242.1 292.615 246.614 305.953 246.566 C 321.556 246.51 330.671 241.751 330.671 241.751 Z"/>
  <path style="stroke-width: 4px; stroke: rgba(179, 155, 70, 0.4); fill: none;" d="M 147.611 22.557 C 147.921 22.043 171.988 19.382 196.804 19.056 C 223.527 18.703 251.12 20.719 250.865 21.14"/>
  <path style="stroke: rgb(0, 0, 0); stroke-width: 0px; fill: rgb(110, 94, 35);" d="M 273.269 125.524 C 273.269 125.524 324.601 124.009 322.145 126.041 C 322.145 126.041 323.735 128.78 323.834 130.426 C 323.948 132.394 323.394 137.391 323.394 137.391 C 315.314 131.826 273.404 135.291 274.205 135.844 L 273.269 125.524 Z"/>
</svg>