<?xml version="1.0" encoding="utf-8"?>
<svg viewBox="84.523 35.382 275.298 330.114" width="670px" height="800px" xmlns="http://www.w3.org/2000/svg">
  <path style="stroke: rgb(0, 0, 0); stroke-width: 14px; fill: rgb(219, 173, 6);" d="M 296.641 313.395 C 286.876 317.261 279.16 319.432 262.415 319.212 C 253.481 319.095 245.564 317.368 234.482 308.659 C 222.448 299.201 225.231 297.55 217.102 278.243 C 212.263 266.751 210.135 143.734 213.997 122.439 C 216.087 110.913 218.446 98.064 224.551 88.919 C 227.435 84.599 239.462 70.542 246.275 65.954 C 254.253 60.582 267.38 57.884 267.38 57.884 C 283.976 37.914 80.671 38.038 92.334 57.883 C 92.334 57.883 108.496 65.994 116.295 70.778 C 123.94 75.469 133.301 88.921 133.301 88.921 C 133.301 88.921 146.625 112.139 150.064 124.922 C 162.045 169.459 158.501 236.704 162.476 262.725 C 164.976 279.087 171.738 310.666 184.201 326.357 C 193.957 338.64 203.718 346.552 215.24 349.946 C 222.089 351.964 237.541 360.818 274.829 355.214 C 291.913 352.646 307.088 350.397 322.005 338.454 C 330.429 331.709 339.833 317.79 343.73 302.452 C 357.531 248.139 348.696 140.44 348.696 140.44 C 348.696 140.44 344.198 123.882 336.903 116.232 C 331.245 110.299 321.61 103.597 313.935 100.714 C 295.138 93.652 271.365 95.695 251.241 101.334 C 242.665 103.737 233.2 110.19 228.275 114.991 C 219.745 123.305 213.592 140.81 212.755 155.338 C 210.39 196.405 215.239 267.07 215.239 267.07 C 215.239 267.07 218.331 295.267 240.068 306.177 C 245.064 308.685 268.622 313.004 268.622 313.004 C 268.622 313.004 297.645 313.984 304.624 302.452 C 314.209 286.615 314.595 283.654 315.797 275.761 C 320.332 245.985 323.483 201.135 312.694 182.651 C 306.793 172.541 299.846 169.273 293.452 167.753 C 281.572 164.928 237.585 167.752 237.585 167.752 L 237.586 192.583 C 237.586 192.583 270.118 185.028 286.002 192.582 C 290.38 194.664 293.164 199.776 294.693 204.377 C 301.838 225.879 295.673 268.893 294.144 275.529 C 292.357 283.284 287.851 287.14 285.772 288.174 C 277.787 292.145 269.078 292.911 258.691 290.037 C 246.181 286.576 243.306 279.758 239.448 270.174 C 233.734 255.979 238.206 156.579 238.206 156.579 C 238.206 156.579 238.943 143.301 246.896 136.716 C 254.164 130.698 257.035 129.465 274.208 129.268 C 286.829 129.123 297.745 129.52 310.211 139.82 C 327.756 154.317 325.252 173.745 325.729 194.444 C 326.693 236.247 325.506 268.067 317.574 288.176 C 308.5 311.18 290.306 316.564 290.968 315.488"/>
  <path style="stroke-width: 0px; stroke: rgb(146, 184, 100); fill: rgb(252, 232, 182);" d="M 127.145 54.767 C 148.926 59.227 161.362 78.697 165.341 97.343 C 168.976 114.379 171.64 145.459 171.64 145.459 C 171.64 145.459 182.945 276.822 186.702 294.761 C 190.22 311.559 192.081 322.873 201.253 332.94 C 213.763 346.672 238.206 348.385 238.206 348.385 C 238.206 348.385 217.408 337.447 207.643 319.656 C 200.883 307.34 200.439 281.341 198.14 271.195 C 195.773 260.748 188.645 162.477 190.49 97.978 C 190.738 89.324 196.587 58.869 216.937 52.904 C 232.414 48.367 103.143 49.852 127.145 54.767 Z"/>
  <g style="" transform="matrix(1.112442, 0, 0, 0.972997, -16.204502, 1.680516)">
    <ellipse style="stroke: rgb(0, 0, 0); stroke-width: 9px; fill: rgb(149, 123, 123);" cx="142.718" cy="192.377" rx="11.794" ry="14.173"/>
    <ellipse style="stroke: rgb(0, 0, 0); stroke-width: 9px; fill: rgb(103, 83, 83);" cx="138.58" cy="191.86" rx="11.794" ry="14.173"/>
    <ellipse style="stroke: rgb(0, 0, 0); fill: rgb(55, 54, 54); stroke-width: 0px;" cx="142.412" cy="192.303" rx="4.287" ry="7.014"/>
  </g>
  <path style="stroke: rgb(0, 0, 0); stroke-width: 0px; fill: rgb(148, 127, 53);" d="M 244.513 184.899 L 243.344 174.377 C 243.344 174.377 275.989 171.007 290.497 173.988 C 296.078 175.135 301.169 176.679 304.526 180.612 C 308.384 185.131 310.65 187.954 311.541 192.693 C 313.778 204.59 312.954 213.148 312.71 230.104 C 312.483 245.874 312.477 261.649 308.813 277.257 C 304.495 295.651 298.482 301.803 291.675 302.275 C 268.983 303.849 251.641 294.988 251.641 294.988 C 242.916 298.613 284.194 300.522 290.956 291.911 C 292.717 289.668 297.162 284.757 298.68 272.58 L 301.019 249.978 L 301.798 218.412 L 300.783 205.484 C 301.342 205.484 298.953 194.686 295.869 191.913 C 292.332 188.733 288.674 186.184 285.821 185.288 C 271.817 180.888 244.513 184.899 244.513 184.899 Z"/>
  <path style="stroke: rgb(0, 0, 0); stroke-width: 0px; fill: rgb(252, 232, 182);" d="M 298.681 107.739 C 298.681 107.739 315.58 111.273 321.283 116.313 C 326.953 121.323 331.138 125.228 334.143 132.68 C 335.916 137.077 337.26 150.216 337.26 150.216 C 337.26 150.216 332.298 137.056 329.077 132.291 C 325.216 126.579 320.364 123.488 315.827 119.43 C 310.027 114.242 298.681 107.739 298.681 107.739 Z"/>
  <path style="stroke: rgb(0, 0, 0); stroke-width: 0px; fill: rgb(188, 147, 0);" d="M 295.277 301.417 C 296.223 301.847 289.767 303.492 277.927 299.802 C 273.67 298.475 270.651 298.695 259.101 296.545 C 248.85 294.637 238.636 285.979 237.889 284.271 C 235.914 279.755 232.026 271.457 231.263 265.176 C 226.781 228.293 232.043 147.099 232.043 147.099 C 232.427 145.534 237.487 136.277 246.474 127.467 C 249.944 124.065 245.916 123.506 254.645 110.077 C 259.857 102.058 238.221 114.542 229.315 122.938 C 221.398 130.402 219.607 139.422 219.183 148.658 C 217.173 192.479 217.016 251.252 222.3 271.411 C 223.848 277.318 229.705 288.168 229.705 288.168 C 229.705 288.168 237.103 297.482 241.786 300.249 C 244.414 301.802 260.664 306.775 272.795 306.722 C 286.986 306.661 295.277 301.417 295.277 301.417 Z"/>
  <path style="stroke-width: 4px; stroke: rgba(179, 155, 70, 0.4); fill: none;" d="M 128.774 60.197 C 129.057 59.631 150.946 56.703 173.518 56.344 C 197.823 55.956 222.922 58.174 222.69 58.638"/>
  <path style="stroke: rgb(0, 0, 0); stroke-width: 0px; fill: rgb(110, 94, 35);" d="M 243.068 173.514 C 243.068 173.514 289.756 171.847 287.523 174.083 C 287.523 174.083 288.969 177.097 289.058 178.909 C 289.163 181.074 288.659 186.574 288.659 186.574 C 281.309 180.449 243.19 184.263 243.919 184.871 L 243.068 173.514 Z"/>
</svg>