<?xml version="1.0" encoding="utf-8"?>
<svg height="800px" width="800px" version="1.1" id="Layer_1" viewBox="0 0 500 500" xmlns="http://www.w3.org/2000/svg">
  <circle style="fill: rgb(249, 124, 40);" cx="250.003" cy="250.002" r="227.57"/>
  <g style="" transform="matrix(0.921874, 0, 0, 0.921874, 14.000004, 13.999496)">
    <path style="fill: rgb(229, 100, 40);" d="M126.306,385.694c-88.801-88.802-95.798-228.426-20.998-325.241 c-8.286,6.401-16.258,13.399-23.858,20.999c-96.401,96.401-96.401,252.698,0,349.099s252.698,96.401,349.099,0 c7.599-7.599,14.597-15.573,20.999-23.858C354.733,481.492,215.108,474.495,126.306,385.694z"/>
    <path style="fill: rgb(229, 100, 40);" d="M220.789,326.378c-2.659,0-5.296-1.153-7.104-3.377c-3.188-3.92-2.596-9.684,1.325-12.872 c11.647-9.473,26.436-14.69,41.644-14.69c14.5,0,28.75,4.799,40.126,13.512c4.011,3.073,4.772,8.816,1.701,12.828 c-3.073,4.012-8.815,4.772-12.828,1.701c-8.2-6.281-18.499-9.74-28.999-9.74c-11.014,0-21.703,3.76-30.097,10.587 C224.86,325.705,222.818,326.378,220.789,326.378z"/>
  </g>
  <path d="M 250.001 13.999 C 119.868 13.999 14 119.867 14 250 C 14 380.132 119.868 486 250.001 486 C 380.133 486 486 380.131 486 250 C 486 119.868 380.132 13.999 250.001 13.999 Z M 250.001 469.129 C 129.171 469.129 30.869 370.829 30.869 250 C 30.869 129.17 129.171 30.868 250.001 30.868 C 370.83 30.868 469.132 129.169 469.132 250 C 469.132 370.83 370.828 469.129 250.001 469.129 Z" style=""/>
  <path d="M 180.469 225.827 C 180.469 222.219 179.847 218.754 178.714 215.529 C 182.085 215.874 185.607 216.071 189.299 216.071 C 199.068 216.071 209.96 214.742 221.972 211.475 C 226.466 210.253 229.119 205.618 227.897 201.121 C 226.674 196.626 222.031 193.977 217.544 195.196 C 157.685 211.479 131.765 173.398 130.677 171.745 C 128.145 167.857 122.946 166.74 119.042 169.255 C 115.124 171.775 113.995 176.995 116.516 180.913 C 116.797 181.351 122.452 189.992 134.077 198.579 C 124.529 203.921 118.057 214.13 118.057 225.827 C 118.057 243.034 132.056 257.035 149.263 257.035 C 166.471 257.035 180.469 243.034 180.469 225.827 Z" style=""/>
  <path d="M 253.984 250.935 C 212.209 250.935 175.02 276.926 161.442 315.608 C 159.9 320.004 162.212 324.817 166.608 326.361 C 171.006 327.905 175.817 325.592 177.36 321.196 C 188.57 289.261 219.362 267.806 253.985 267.806 C 288.6 267.806 319.389 289.261 330.598 321.196 C 331.816 324.668 335.075 326.84 338.557 326.839 C 339.484 326.839 340.427 326.685 341.35 326.362 C 345.747 324.818 348.059 320.006 346.516 315.609 C 332.936 276.925 295.75 250.935 253.984 250.935 Z" style=""/>
  <path d="M 380.984 169.297 C 377.095 166.763 371.877 167.867 369.326 171.744 C 368.253 173.374 342.333 211.483 282.459 195.198 C 277.969 193.977 273.33 196.627 272.106 201.123 C 270.882 205.618 273.536 210.253 278.031 211.477 C 290.046 214.745 300.934 216.073 310.704 216.073 C 314.395 216.073 317.916 215.877 321.287 215.529 C 320.155 218.756 319.533 222.22 319.533 225.83 C 319.533 243.037 333.532 257.036 350.741 257.036 C 367.948 257.036 381.947 243.037 381.947 225.83 C 381.947 214.132 375.475 203.923 365.927 198.58 C 377.552 189.994 383.207 181.353 383.488 180.915 C 385.998 177.009 384.872 171.829 380.984 169.297 Z" style=""/>
  <g style="" transform="matrix(0.921874, 0, 0, 0.921874, 14.000004, 13.999496)">
    <circle style="fill:#FFFFFF;" cx="155.969" cy="225.835" r="9.15"/>
    <circle style="fill:#FFFFFF;" cx="374.338" cy="225.835" r="9.15"/>
  </g>
</svg>